<svg fill="#c770f0" xmlns="http://www.w3.org/2000/svg" viewBox="0 0 50 50" width="500px" height="500px">
	<path d="M 24.96875 2 C 24.867188 1.996094 17.457031 1.78125 11.5625 6.625 C 11.488281 6.6875 11.425781 6.761719 11.375 6.84375 C 10.378906 8.304688 9.96875 10.585938 9.625 12.84375 C 9.324219 14.820313 9.164063 16.457031 9.0625 17.4375 C 8.902344 17.515625 8.699219 17.53125 8.5625 17.65625 C 8.261719 17.929688 8 18.371094 8 18.90625 C 8 18.917969 8 18.925781 8 18.9375 L 8.3125 27.6875 C 8.3125 27.699219 8.3125 27.707031 8.3125 27.71875 C 8.320313 28.183594 8.480469 28.546875 8.75 28.84375 C 8.945313 29.058594 9.296875 29.15625 9.625 29.25 C 9.707031 29.613281 10.078125 31.332031 10.625 33.59375 C 10.925781 34.835938 11.257813 36.121094 11.5625 37.21875 C 11.867188 38.316406 12.109375 39.160156 12.40625 39.75 C 13.511719 41.964844 16.199219 45.746094 19.03125 47.28125 C 19.042969 47.28125 19.050781 47.28125 19.0625 47.28125 C 19.8125 47.65625 20.726563 47.820313 21.75 47.9375 C 22.773438 48.054688 23.875 48.09375 24.8125 48.09375 C 25.847656 48.09375 27.105469 48.054688 28.25 47.9375 C 28.824219 47.878906 29.367188 47.789063 29.84375 47.6875 C 30.296875 47.59375 30.671875 47.511719 31.0625 47.28125 C 31.074219 47.273438 31.082031 47.257813 31.09375 47.25 C 31.101563 47.246094 31.117188 47.253906 31.125 47.25 C 32.496094 46.515625 33.800781 45.191406 34.96875 43.78125 C 36.144531 42.359375 37.128906 40.894531 37.6875 39.78125 C 37.691406 39.773438 37.683594 39.757813 37.6875 39.75 C 38.015625 39.125 38.203125 38.304688 38.46875 37.21875 C 38.738281 36.121094 39.03125 34.84375 39.28125 33.59375 C 39.722656 31.402344 39.980469 29.847656 40.0625 29.375 C 40.503906 29.355469 40.839844 29.195313 41.125 28.9375 C 41.421875 28.667969 41.675781 28.238281 41.6875 27.71875 C 41.6875 27.707031 41.6875 27.699219 41.6875 27.6875 L 42 18.9375 C 42 18.925781 42 18.917969 42 18.90625 C 42 18.421875 41.804688 18.050781 41.53125 17.75 C 41.398438 17.601563 41.140625 17.570313 40.9375 17.46875 C 40.847656 16.515625 40.71875 14.839844 40.4375 12.84375 C 40.117188 10.578125 39.734375 8.257813 38.59375 6.78125 C 38.546875 6.722656 38.496094 6.671875 38.4375 6.625 C 32.542969 1.78125 25.132813 1.996094 25.03125 2 C 25.03125 2 24.96875 2 24.96875 2 Z M 24.96875 4 C 24.988281 4 25.011719 4 25.03125 4 C 25.03125 4 31.8125 3.878906 37.0625 8.125 C 37.605469 8.914063 38.171875 11.035156 38.46875 13.125 C 38.773438 15.285156 38.886719 17.363281 39 18.3125 C 39.0625 18.816406 39.492188 19.191406 40 19.1875 L 39.6875 27.40625 L 39.1875 27.40625 C 38.636719 27.40625 38.1875 27.855469 38.1875 28.40625 L 38.1875 28.59375 C 38.164063 28.738281 37.792969 30.796875 37.3125 33.1875 C 37.0625 34.421875 36.789063 35.699219 36.53125 36.75 C 36.273438 37.800781 35.972656 38.722656 35.90625 38.84375 C 35.464844 39.730469 34.5 41.179688 33.40625 42.5 C 32.3125 43.820313 31.035156 45.027344 30.125 45.5 C 30.101563 45.519531 30.082031 45.539063 30.0625 45.5625 C 30.074219 45.554688 29.808594 45.671875 29.4375 45.75 C 29.066406 45.828125 28.589844 45.882813 28.0625 45.9375 C 27.007813 46.046875 25.777344 46.09375 24.8125 46.09375 C 23.949219 46.09375 22.894531 46.042969 21.96875 45.9375 C 21.042969 45.832031 20.1875 45.625 19.9375 45.5 C 17.96875 44.410156 15.074219 40.621094 14.1875 38.84375 C 14.082031 38.632813 13.792969 37.746094 13.5 36.6875 C 13.207031 35.628906 12.859375 34.355469 12.5625 33.125 C 11.992188 30.773438 11.542969 28.785156 11.5 28.59375 L 11.5 28.40625 C 11.5 27.855469 11.050781 27.40625 10.5 27.40625 L 10.3125 27.40625 L 10 19.1875 C 10.507813 19.191406 10.9375 18.816406 11 18.3125 C 11.105469 17.402344 11.261719 15.292969 11.59375 13.125 C 11.917969 11.007813 12.503906 8.886719 13 8.09375 C 18.242188 3.894531 24.96875 4 24.96875 4 Z M 20.3125 6.40625 C 20.3125 6.40625 17.011719 7.414063 15.8125 8.3125 C 14.511719 9.3125 13.5 10.8125 13.5 10.8125 L 13.8125 22.5 L 12.5 26.40625 C 12.5 26.40625 12.8125 28.804688 13.3125 29.40625 C 13.8125 30.105469 17.5 36.1875 17.5 36.1875 C 17.5 36.1875 18 38.613281 17.5 40.8125 C 17.300781 42.3125 18 43.1875 18 43.1875 L 18.90625 44.1875 C 19.105469 44.386719 19.292969 44.5 19.59375 44.5 C 19.695313 44.5 19.804688 44.507813 19.90625 44.40625 L 21.6875 43.59375 L 28.90625 43.59375 L 30.6875 44.40625 C 30.789063 44.40625 30.898438 44.5 31 44.5 C 31.199219 44.5 31.488281 44.386719 31.6875 44.1875 L 32.59375 43.1875 C 32.59375 43.1875 33.394531 42.210938 33.09375 40.8125 C 32.59375 38.613281 33.09375 36.1875 33.09375 36.1875 C 33.09375 36.1875 36.3125 30.105469 36.8125 29.40625 C 37.3125 28.707031 37.613281 26.386719 37.8125 26.1875 L 36.5 22.3125 L 36.8125 10.8125 C 36.8125 10.8125 35.59375 9.3125 34.59375 8.3125 C 33.195313 7.210938 29.90625 6.40625 29.90625 6.40625 L 28.8125 15 C 28.8125 15 28.5 16.898438 28.5 17 C 28.5 17.199219 27.3125 17.5 27.3125 17.5 L 23 17.5 C 23 17.5 21.8125 17.199219 21.8125 17 C 21.8125 16.800781 21.5 15 21.5 15 Z M 31.59375 9 C 32.292969 9.199219 32.792969 9.488281 33.09375 9.6875 C 33.59375 10.1875 34.195313 11.007813 34.59375 11.40625 L 34.3125 22.1875 C 34.3125 22.386719 34.304688 22.707031 34.40625 22.90625 L 35.1875 25.21875 L 35 25.09375 C 35 25.09375 34.800781 24.894531 34.5 25.09375 C 33.5 25.394531 30.707031 26.707031 27.90625 26.90625 C 27.207031 27.207031 27.6875 27.5 27.6875 27.5 C 27.6875 27.5 28.300781 28.492188 28.5 28.59375 C 28.699219 28.894531 29.09375 28.90625 29.09375 28.90625 L 32.3125 28.6875 C 32.3125 28.6875 32.914063 28.707031 33.3125 28.40625 C 33.648438 28.269531 34.464844 27.746094 35.25 27.25 C 35.15625 27.652344 35.066406 28.117188 35 28.3125 C 34.398438 29.113281 32.386719 33.011719 31.1875 35.3125 C 31.085938 35.511719 31.101563 35.613281 31 35.8125 C 30.898438 36.113281 30.398438 38.6875 31 41.1875 C 31.101563 41.488281 30.90625 41.804688 30.90625 41.90625 L 30.59375 42.3125 L 29.59375 41.90625 C 29.292969 41.804688 29.113281 41.6875 28.8125 41.6875 L 21.59375 41.6875 C 21.292969 41.6875 21.113281 41.804688 20.8125 41.90625 L 19.8125 42.3125 L 19.5 42 C 19.398438 41.898438 19.304688 41.59375 19.40625 41.09375 C 19.90625 38.59375 19.40625 36.113281 19.40625 35.8125 C 19.40625 35.613281 19.289063 35.386719 19.1875 35.1875 C 18.386719 33.789063 15.601563 29.210938 15 28.3125 C 14.941406 28.140625 14.867188 27.800781 14.78125 27.4375 C 15.527344 27.90625 16.277344 28.371094 16.59375 28.5 C 16.992188 28.800781 17.59375 28.8125 17.59375 28.8125 L 20.8125 29 C 20.8125 29 21.300781 28.992188 21.5 28.59375 C 21.699219 28.492188 22.3125 27.5 22.3125 27.5 C 22.3125 27.5 22.800781 27.199219 22 27 C 19.199219 26.800781 16.40625 25.488281 15.40625 25.1875 C 15.300781 25.117188 15.203125 25.121094 15.125 25.125 L 15.8125 23.1875 C 15.914063 22.988281 15.90625 22.699219 15.90625 22.5 L 15.59375 11.5 C 15.992188 11 16.492188 10.398438 17.09375 10 C 17.394531 9.800781 18.011719 9.488281 18.8125 9.1875 L 19.59375 15.40625 L 19.59375 15.5 C 19.695313 16.199219 19.90625 17.113281 19.90625 17.3125 C 20.007813 18.914063 21.601563 19.292969 22.5 19.59375 C 22.699219 19.695313 22.894531 19.6875 23.09375 19.6875 L 27.40625 19.6875 C 27.605469 19.6875 27.800781 19.695313 28 19.59375 C 28.898438 19.292969 30.492188 18.914063 30.59375 17.3125 C 30.59375 17.113281 30.804688 16.199219 30.90625 15.5 L 30.90625 15.40625 Z" />
</svg>