<svg width="114" height="25" viewBox="0 0 114 25" fill="none" xmlns="http://www.w3.org/2000/svg">
    <path fill="#fff" d="M0 0h192.756v192.756H0V0z" />
    <path d="M0.73969 5.49655C0.73969 8.62494 3.3206 10.0848 5.92759 10.6584L8.27387 11.1537C10.6202 11.7012 12.3408 12.4833 12.3408 14.4906C12.3408 16.3677 10.7505 17.6712 7.93497 17.6712C5.01514 17.6712 3.21632 16.3155 2.721 13.7086H0.114014C0.609341 17.4626 3.42488 19.9132 7.88282 19.9132C11.6369 19.9132 15.0781 17.9319 15.0781 14.256C15.0781 10.4498 11.6108 9.35489 8.71706 8.72921L6.52719 8.23389C4.75444 7.84284 3.45095 7.0086 3.45095 5.34014C3.45095 3.22848 6.0058 2.57673 7.46571 2.57673C9.34274 2.57673 11.5326 3.33276 12.1583 5.49655H14.7392C13.9832 1.87285 10.9851 0.334726 7.56999 0.334726C4.51982 0.334726 0.73969 1.87285 0.73969 5.49655Z" fill="#333B7B" />
    <path d="M17.7741 5.54869V19.5743H20.1465V5.54869H17.7741Z" fill="#333B7B" />
    <path d="M26.1984 11.9619C26.1984 8.93777 27.5279 7.37358 29.5875 7.37358C32.1684 7.37358 32.5855 9.25061 32.5855 11.4144V19.5743H34.9578V11.9619C34.9578 8.93777 36.2874 7.37358 38.3469 7.37358C40.9278 7.37358 41.3449 9.25061 41.3449 11.4144V19.5743H43.7173V10.7105C43.7173 7.50393 42.4399 5.31406 39.1812 5.31406C37.1998 5.31406 35.5835 6.04402 34.4625 7.7907C33.8368 6.22651 32.5855 5.31406 30.4217 5.31406C28.31 5.31406 27.0065 6.33079 26.1984 7.66035V5.54869H23.826V19.5743H26.1984V11.9619Z" fill="#333B7B" />
    <path d="M46.616 5.54869V24.7104H48.9883V17.4626C49.8486 18.9486 51.3085 19.9132 53.5766 19.9132C56.8093 19.9132 59.5727 17.2801 59.5727 12.6136C59.5727 8.02533 56.8093 5.31406 53.5766 5.31406C51.3085 5.31406 49.8486 6.27865 48.9883 7.76463V5.54869H46.616ZM48.884 12.6136C48.884 8.91171 50.8653 7.34751 52.977 7.34751C55.4015 7.34751 56.9918 9.25061 56.9918 12.6136C56.9918 15.9766 55.4015 17.8797 52.977 17.8797C50.8653 17.8797 48.884 16.3155 48.884 12.6136Z" fill="#333B7B" />
    <path d="M64.0642 0.673635H61.6919V19.5743H64.0642V0.673635Z" fill="#333B7B" />
    <path d="M67.3994 5.54869V19.5743H69.7718V5.54869H67.3994Z" fill="#333B7B" />
    <path d="M86.1473 5.13158C86.1473 3.74988 86.1212 2.55066 86.043 1.50787C86.017 1.01254 85.6781 0.777915 85.0002 0.777915C84.8699 0.777915 84.3224 0.803984 83.3318 0.882194C82.3411 0.934333 81.3505 0.960403 80.3859 0.960403H73.6338C73.1645 0.960403 72.9299 1.11682 72.9299 1.42966C72.9299 1.84678 73.3731 1.89892 73.712 2.13355C74.0248 2.31603 74.2073 2.57673 74.2855 2.8635C74.3637 3.15027 74.4159 3.72381 74.4159 4.58411V15.0903C74.4159 16.3677 74.3377 17.2019 74.1813 17.5669C74.0248 17.9579 73.7641 18.2447 73.3731 18.4793C72.982 18.714 72.7996 18.8965 72.7996 19.0789C72.7996 19.4178 73.0603 19.5743 73.6077 19.5743H77.8571C78.4046 19.5743 78.6653 19.4178 78.6653 19.0789C78.6653 18.8965 78.4828 18.6879 78.1178 18.5054C77.7789 18.2968 77.5182 18.0361 77.3618 17.7494C77.1532 17.3323 77.0489 16.4459 77.0489 15.0903V11.6751C77.0489 11.4405 77.1532 11.3362 77.3878 11.3362C78.4567 11.3362 79.2649 11.3362 79.8123 11.3623C80.0991 11.3623 80.5423 11.3883 81.1419 11.4405C81.7415 11.4665 82.2108 11.4926 82.5497 11.4926C83.41 11.4926 83.6967 11.3362 83.801 10.6323C83.8532 10.3716 83.8792 10.2152 83.8792 10.137C83.8792 9.79808 83.5664 9.61559 82.9146 9.61559C82.7322 9.61559 82.315 9.64166 81.6633 9.6938L80.2295 9.79808C79.6299 9.82415 78.7695 9.85022 77.6485 9.85022C77.2054 9.85022 77.0489 9.71987 77.0489 9.22454V2.83743C77.0489 2.47245 77.2314 2.28996 77.5964 2.28996H78.6131C81.194 2.28996 82.4193 2.36817 83.2275 2.91564C83.7228 3.25455 84.0617 3.6456 84.2181 4.08878C84.3746 4.34948 84.5049 4.7666 84.6613 5.07944C84.896 5.57476 85.1567 5.83546 85.4434 5.83546C85.9127 5.83546 86.1473 5.60084 86.1473 5.13158Z" fill="#333B7B" />
    <path d="M88.7009 10.6584C89.0398 8.59886 90.4476 6.95647 92.4289 6.95647C93.2892 6.95647 93.9931 7.24323 94.5145 7.7907C95.062 8.33817 95.3227 8.93777 95.3227 9.58952C95.3227 10.7366 94.697 11.1016 93.1328 11.1016H88.8834C88.7531 11.1016 88.6749 11.0494 88.6749 10.9452C88.6749 10.893 88.6749 10.7887 88.7009 10.6584ZM97.1215 16.2113C96.7565 16.2113 95.1923 17.984 92.8982 17.984C91.5686 17.984 90.5258 17.4887 89.7437 16.472C88.9616 15.4552 88.5706 14.23 88.5706 12.7961V12.6658C88.5706 12.4833 88.6749 12.4051 88.8574 12.4051H95.9223C97.3561 12.379 97.9818 12.014 97.9818 10.5541C97.9818 8.72922 96.3916 5.67904 92.6636 5.67904C90.7083 5.67904 89.092 6.43507 87.8146 7.94712C86.5371 9.4331 85.9115 11.1798 85.9115 13.1611C85.9115 15.012 86.485 16.6023 87.6321 17.9058C88.7792 19.2093 90.3173 19.861 92.2464 19.861C93.7846 19.861 95.062 19.47 96.1048 18.714C97.1736 17.9319 97.695 17.2801 97.695 16.7587C97.695 16.3937 97.5125 16.2113 97.1215 16.2113Z" fill="#333B7B" />
    <path d="M105.668 18.0101C104.547 18.0101 103.634 17.4887 102.93 16.4459C102.226 15.377 101.887 14.0735 101.887 12.5093C101.887 11.0234 102.174 9.71987 102.774 8.65101C103.373 7.55607 104.312 7.00861 105.563 7.00861C107.779 7.00861 109.291 9.09419 109.291 12.6397C109.291 15.8984 107.936 18.0101 105.668 18.0101ZM111.768 0.777915C111.768 0.334727 111.585 0.100098 111.22 0.100098C111.116 0.100098 110.934 0.152237 110.647 0.256517C109.865 0.569356 109.083 0.803984 108.275 0.986472C107.779 1.09075 107.545 1.27324 107.545 1.56001C107.545 1.76857 107.753 1.95106 108.144 2.10748C108.561 2.26389 108.848 2.44638 109.004 2.62887C109.187 2.8635 109.291 3.3849 109.291 4.19306V6.6697C109.291 6.74791 109.265 6.80005 109.187 6.80005C109.135 6.80005 109.083 6.77398 109.004 6.72184C107.936 6.01795 106.789 5.67904 105.563 5.67904C101.809 5.6269 99.2283 9.64166 99.3326 13.4479C99.3326 15.5334 99.88 17.1237 100.949 18.2186C102.018 19.3136 103.269 19.861 104.677 19.861C106.319 19.861 107.753 19.1311 108.952 17.6712C109.031 17.593 109.083 17.5669 109.135 17.5669C109.239 17.5669 109.291 17.6451 109.291 17.7754V19.1832C109.291 19.6264 109.474 19.861 109.839 19.861C110.021 19.861 110.204 19.8089 110.438 19.7046C111.09 19.4439 111.872 19.2093 112.785 18.9747C113.28 18.8704 113.515 18.6618 113.515 18.3751C113.515 18.1926 113.28 18.0101 112.811 17.8276C112.367 17.6451 112.081 17.4626 111.95 17.228C111.82 16.9934 111.768 16.472 111.768 15.7159V0.777915Z" fill="#333B7B" />
    <path fill-rule="evenodd" clip-rule="evenodd" d="M5.90615 10.756C4.5938 10.4672 3.27936 9.9538 2.2912 9.11154C1.29976 8.26649 0.639737 7.09241 0.639737 5.49646C0.639737 3.64336 1.60875 2.32388 2.95768 1.4721C4.30337 0.622364 6.03053 0.234629 7.57003 0.234629C9.29167 0.234629 10.9155 0.622224 12.2068 1.47315C13.5002 2.32548 14.4538 3.63885 14.8371 5.47603L14.8623 5.59646H12.0831L12.0623 5.52423C11.4553 3.42529 9.32649 2.67664 7.46575 2.67664C6.7473 2.67664 5.76043 2.83756 4.95704 3.25519C4.15612 3.67154 3.551 4.33405 3.551 5.34004C3.551 6.14401 3.86328 6.74217 4.38916 7.1898C4.91897 7.64077 5.67 7.94229 6.54878 8.13614L8.73824 8.63138C8.73841 8.63141 8.73807 8.63134 8.73824 8.63138C10.1858 8.94437 11.793 9.37766 13.0387 10.2169C14.2909 11.0606 15.1781 12.3151 15.1781 14.2559C15.1781 16.1294 14.2994 17.5726 12.9466 18.5442C11.5965 19.5137 9.77599 20.0131 7.88287 20.0131C5.63559 20.0131 3.79346 19.3952 2.44918 18.296C1.10437 17.1963 0.265544 15.621 0.0149204 13.7215L0 13.6085H2.80383L2.81929 13.6898C3.06325 14.9738 3.62598 15.9406 4.47927 16.5877C5.33369 17.2357 6.49002 17.5711 7.93501 17.5711C9.32872 17.5711 10.4068 17.2483 11.1339 16.7046C11.858 16.1631 12.2408 15.3976 12.2408 14.4906C12.2408 13.5224 11.829 12.8541 11.1292 12.3561C10.423 11.8534 9.4231 11.5245 8.25224 11.2512L5.90615 10.756ZM8.27392 11.1536C10.6202 11.7011 12.3408 12.4832 12.3408 14.4906C12.3408 16.3676 10.7506 17.6711 7.93501 17.6711C5.01519 17.6711 3.21637 16.3154 2.72104 13.7085H0.114061C0.118473 13.7419 0.123069 13.7752 0.127848 13.8085C0.659674 17.506 3.46464 19.9131 7.88287 19.9131C11.6369 19.9131 15.0781 17.9318 15.0781 14.2559C15.0781 10.4497 11.6109 9.35479 8.71711 8.72912L6.52724 8.23379C4.75449 7.84274 3.451 7.00851 3.451 5.34004C3.451 3.22838 6.00584 2.57664 7.46575 2.57664C9.34278 2.57664 11.5326 3.33266 12.1583 5.49646H14.7392C14.7322 5.46295 14.7251 5.42961 14.7177 5.39646C13.9277 1.84443 10.9536 0.334629 7.57003 0.334629C4.51986 0.334629 0.739737 1.87275 0.739737 5.49646C0.739737 8.62484 3.32065 10.0847 5.92764 10.6583L8.27392 11.1536ZM17.6742 5.4486H20.2465V19.6742H17.6742V5.4486ZM32.4855 19.6742V11.4143C32.4855 10.334 32.3804 9.34745 31.9677 8.63246C31.7629 8.27745 31.4821 7.9894 31.0985 7.78924C30.714 7.58862 30.2208 7.47349 29.5875 7.47349C28.5857 7.47349 27.7691 7.85244 27.2 8.59445C26.6282 9.33999 26.2984 10.4626 26.2984 11.9618V19.6742H23.7261V5.4486H26.2984V7.32154C27.1323 6.10956 28.4246 5.21397 30.4217 5.21397C31.5176 5.21397 32.3914 5.44508 33.0729 5.8815C33.7047 6.28614 34.1643 6.8628 34.4822 7.57974C35.6193 5.91354 37.2309 5.21397 39.1812 5.21397C40.8351 5.21397 42.0014 5.77113 42.7507 6.7489C43.4963 7.72187 43.8173 9.09642 43.8173 10.7104V19.6742H41.245V11.4143C41.245 10.334 41.1398 9.34745 40.7272 8.63246C40.5223 8.27745 40.2416 7.9894 39.858 7.78924C39.4735 7.58862 38.9803 7.47349 38.347 7.47349C37.3452 7.47349 36.5285 7.85244 35.9595 8.59445C35.3877 9.33999 35.0579 10.4626 35.0579 11.9618V19.6742H32.4855ZM34.5291 7.68897C34.5067 7.72246 34.4846 7.75634 34.4626 7.7906C34.4475 7.75284 34.432 7.71545 34.4161 7.67845C33.7759 6.18288 32.5333 5.31397 30.4217 5.31397C28.3951 5.31397 27.1128 6.2505 26.2984 7.5013C26.2643 7.55375 26.2309 7.60675 26.1984 7.66025V5.5486H23.8261V19.5742H26.1984V11.9618C26.1984 8.93768 27.528 7.37349 29.5875 7.37349C32.1684 7.37349 32.5855 9.25051 32.5855 11.4143V19.5742H34.9579V11.9618C34.9579 8.93768 36.2874 7.37349 38.347 7.37349C40.9279 7.37349 41.345 9.25051 41.345 11.4143V19.5742H43.7174V10.7104C43.7174 7.50383 42.4399 5.31397 39.1812 5.31397C37.2388 5.31397 35.6471 6.01556 34.5291 7.68897ZM46.516 5.4486H49.0884V7.41432C49.9861 6.06816 51.4298 5.21397 53.5766 5.21397C56.8767 5.21397 59.6727 7.98297 59.6727 12.6135C59.6727 14.9665 58.9758 16.8164 57.8619 18.0794C56.7477 19.3428 55.2213 20.0131 53.5766 20.0131C51.4298 20.0131 49.9861 19.1589 49.0884 17.8127V24.8104H46.516V5.4486ZM48.9884 17.4625C49.0208 17.5186 49.0542 17.574 49.0884 17.6285C49.96 19.0199 51.3942 19.9131 53.5766 19.9131C56.8093 19.9131 59.5727 17.28 59.5727 12.6135C59.5727 8.02523 56.8093 5.31397 53.5766 5.31397C51.3942 5.31397 49.96 6.2071 49.0884 7.59851C49.0542 7.65309 49.0208 7.70844 48.9884 7.76453V5.5486H46.616V24.7104H48.9884V17.4625ZM64.1643 0.573537V19.6742H61.5919V0.573537H64.1643ZM67.2995 5.4486H69.8718V19.6742H67.2995V5.4486ZM73.712 2.13345C73.6151 2.06633 73.5096 2.01415 73.4084 1.96408C73.1559 1.83913 72.93 1.72736 72.93 1.42956C72.93 1.11672 73.1646 0.960305 73.6338 0.960305H80.3859C81.3505 0.960305 82.3412 0.934235 83.3318 0.882096C84.3225 0.803886 84.8699 0.777817 85.0003 0.777817C85.6781 0.777817 86.017 1.01245 86.0431 1.50777C86.1213 2.55056 86.1474 3.74978 86.1474 5.13148C86.1474 5.60074 85.9127 5.83536 85.4435 5.83536C85.1567 5.83536 84.896 5.57467 84.6614 5.07934C84.5936 4.94386 84.5308 4.78883 84.4686 4.63541C84.3872 4.43456 84.3069 4.23649 84.2182 4.08869C84.0618 3.6455 83.7229 3.25445 83.2275 2.91554C82.4194 2.36808 81.1941 2.28987 78.6132 2.28987H77.5964C77.2315 2.28987 77.049 2.47236 77.049 2.83733V9.22444C77.049 9.71977 77.2054 9.85012 77.6486 9.85012C78.7696 9.85012 79.6299 9.82405 80.2295 9.79798L81.6633 9.6937C82.3151 9.64156 82.7322 9.61549 82.9147 9.61549C83.5664 9.61549 83.8793 9.79798 83.8793 10.1369C83.8793 10.2151 83.8532 10.3715 83.8011 10.6322C83.6968 11.3361 83.41 11.4925 82.5497 11.4925C82.2884 11.4925 81.9496 11.477 81.5333 11.458C81.4098 11.4523 81.2791 11.4463 81.142 11.4404C80.5423 11.3882 80.0992 11.3622 79.8124 11.3622C79.2649 11.3361 78.4568 11.3361 77.3879 11.3361C77.1533 11.3361 77.049 11.4404 77.049 11.675V15.0902C77.049 16.4458 77.1533 17.3322 77.3618 17.7493C77.5182 18.0361 77.7789 18.2967 78.1179 18.5053C78.4828 18.6878 78.6653 18.8964 78.6653 19.0788C78.6653 19.4178 78.4046 19.5742 77.8572 19.5742H73.6078C73.0603 19.5742 72.7996 19.4178 72.7996 19.0788C72.7996 18.8964 72.9821 18.7139 73.3731 18.4792C73.7642 18.2446 74.0249 17.9578 74.1813 17.5668C74.3377 17.2018 74.4159 16.3676 74.4159 15.0902V4.58401C74.4159 3.72371 74.3638 3.15017 74.2856 2.8634C74.2074 2.57664 74.0249 2.31594 73.712 2.13345ZM78.1666 18.4179C78.3539 18.512 78.5004 18.6155 78.6016 18.7238C78.7029 18.8324 78.7653 18.9534 78.7653 19.0788C78.7653 19.2793 78.6851 19.4374 78.5186 19.539C78.3612 19.6349 78.1367 19.6742 77.8572 19.6742H73.6078C73.3282 19.6742 73.1037 19.6349 72.9463 19.539C72.7798 19.4374 72.6996 19.2793 72.6996 19.0788C72.6996 18.9514 72.764 18.8365 72.8678 18.7291C72.9714 18.6219 73.1237 18.5123 73.3217 18.3935C73.6968 18.1684 73.9413 17.8976 74.0885 17.5297L74.0894 17.5274C74.1611 17.3601 74.2188 17.0736 74.2577 16.6612C74.2964 16.2517 74.3159 15.7272 74.3159 15.0902V4.58401C74.3159 3.72392 74.2635 3.16233 74.1891 2.88971C74.1177 2.62787 73.9515 2.38892 73.6617 2.21983L73.655 2.21591C73.5766 2.16168 73.4912 2.11688 73.4023 2.07266C73.3899 2.0665 73.3774 2.06032 73.3648 2.0541C73.2894 2.0168 73.2113 1.97817 73.1414 1.93504C73.059 1.88422 72.9803 1.82267 72.9225 1.7397C72.8633 1.65485 72.8299 1.55321 72.8299 1.42956C72.8299 1.24401 72.9019 1.09344 73.0505 0.994415C73.1918 0.900162 73.3913 0.860305 73.6338 0.860305H80.3859C81.3483 0.860305 82.3368 0.834305 83.3253 0.782301C84.3145 0.704219 84.8654 0.677817 85.0003 0.677817C85.3478 0.677817 85.6262 0.737442 85.8233 0.875051C86.0259 1.01645 86.1283 1.2299 86.1429 1.5014C86.2213 2.54762 86.2474 3.74935 86.2474 5.13148C86.2474 5.38152 86.1848 5.58742 86.0421 5.7301C85.8994 5.87279 85.6935 5.93537 85.4435 5.93537C85.2669 5.93537 85.1063 5.85431 84.9631 5.7147C84.8211 5.57626 84.6913 5.37589 84.5715 5.12312C84.502 4.98405 84.4376 4.82525 84.3757 4.67254C84.3662 4.64891 84.3566 4.62543 84.3472 4.60219C84.2751 4.42528 84.2061 4.26287 84.1324 4.14014L84.1272 4.13148L84.1239 4.12197C83.9767 3.70484 83.655 3.32921 83.1711 2.99807C82.7857 2.73711 82.2952 2.58372 81.5732 2.49669C80.85 2.40952 79.9042 2.38987 78.6132 2.38987H77.5964C77.4294 2.38987 77.3224 2.43157 77.2566 2.49744C77.1907 2.56332 77.149 2.67026 77.149 2.83733V9.22444C77.149 9.46816 77.189 9.58806 77.2533 9.65232C77.3173 9.7163 77.4302 9.75012 77.6486 9.75012C78.7671 9.75012 79.6255 9.72413 80.2237 9.69814C80.2242 9.69812 80.2247 9.6981 80.2252 9.69808L81.6554 9.59402C81.6555 9.59401 81.6552 9.59403 81.6554 9.59402C82.3057 9.542 82.7274 9.51549 82.9147 9.51549C83.2467 9.51549 83.508 9.56143 83.6897 9.66152C83.8793 9.76601 83.9793 9.92882 83.9793 10.1369C83.9793 10.227 83.9507 10.3939 83.8996 10.6494C83.846 11.0091 83.7418 11.2592 83.5141 11.4097C83.2942 11.5551 82.9791 11.5925 82.5497 11.5925C82.2859 11.5925 81.9437 11.5769 81.5266 11.5578C81.4035 11.5521 81.2738 11.5462 81.1376 11.5403L81.1333 11.5401C80.5341 11.488 80.0946 11.4622 79.8124 11.4622H79.8076C79.2631 11.4362 78.458 11.4361 77.3879 11.4361C77.283 11.4361 77.2298 11.4597 77.2012 11.4883C77.1726 11.5169 77.149 11.5702 77.149 11.675V15.0902C77.149 15.7659 77.175 16.3221 77.2265 16.76C77.2782 17.199 77.3546 17.5103 77.4505 17.703C77.5965 17.9699 77.8418 18.2173 78.1666 18.4179ZM88.799 10.6779C88.775 10.7983 88.7749 10.8945 88.7749 10.9451C88.7749 10.9689 88.782 10.9763 88.7891 10.9815C88.8012 10.9903 88.8293 11.0015 88.8835 11.0015H93.1329C93.9131 11.0015 94.4337 10.9092 94.7589 10.6924C95.0727 10.4832 95.2227 10.1442 95.2227 9.58942C95.2227 8.9679 94.9754 8.39282 94.4438 7.86131L94.4421 7.85959C93.9418 7.33425 93.2653 7.05637 92.429 7.05637C90.5133 7.05637 89.1337 8.64479 88.7997 10.6745L88.799 10.6779ZM95.9242 12.5049L95.9223 12.505L88.8574 12.505C88.7781 12.505 88.7343 12.5223 88.7111 12.5425C88.6906 12.5602 88.6706 12.5936 88.6706 12.6657V12.796C88.6706 14.2105 89.056 15.4137 89.823 16.4109C90.5852 17.4017 91.598 17.8839 92.8982 17.8839C94.0193 17.8839 94.9653 17.4508 95.6811 17.0123C95.9887 16.8238 96.252 16.6355 96.4693 16.4802C96.5049 16.4548 96.5392 16.4302 96.5724 16.4066C96.689 16.3238 96.7922 16.2521 96.8786 16.2012C96.9219 16.1757 96.9632 16.1539 97.0016 16.1384C97.039 16.1233 97.0802 16.1112 97.1215 16.1112C97.3308 16.1112 97.504 16.1599 97.6244 16.2761C97.7455 16.393 97.7951 16.5607 97.7951 16.7586C97.7951 17.0523 97.6489 17.3675 97.3785 17.7014C97.107 18.0366 96.7019 18.4009 96.1639 18.7946C95.1015 19.5648 93.8024 19.9609 92.2465 19.9609C90.2922 19.9609 88.7254 19.2994 87.5571 17.9718C86.3927 16.6486 85.8115 15.0343 85.8115 13.161C85.8115 11.1568 86.4451 9.38691 87.7385 7.88216C89.0346 6.34816 90.6787 5.57895 92.6636 5.57895C96.4593 5.57895 98.0819 8.68723 98.0819 10.554C98.0819 11.2949 97.9235 11.7889 97.5534 12.0943C97.1892 12.3949 96.6429 12.4919 95.9242 12.5049ZM87.8146 7.94702C86.5372 9.433 85.9115 11.1797 85.9115 13.161C85.9115 15.0119 86.4851 16.6022 87.6321 17.9057C88.7792 19.2092 90.3173 19.8609 92.2465 19.8609C93.7846 19.8609 95.062 19.4699 96.1048 18.7139C97.1737 17.9318 97.6951 17.28 97.6951 16.7586C97.6951 16.3937 97.5126 16.2112 97.1215 16.2112C97.0175 16.2112 96.8159 16.3553 96.5277 16.5613C95.8052 17.078 94.5382 17.9839 92.8982 17.9839C91.5687 17.9839 90.5259 17.4886 89.7438 16.4719C88.9617 15.4551 88.5706 14.2299 88.5706 12.796V12.6657C88.5706 12.4832 88.6749 12.405 88.8574 12.405H95.9223C97.3562 12.3789 97.9818 12.0139 97.9818 10.554C97.9818 8.72912 96.3916 5.67895 92.6636 5.67895C90.7084 5.67895 89.092 6.43497 87.8146 7.94702ZM102.774 8.65091C102.174 9.71977 101.887 11.0233 101.887 12.5092C101.887 14.0734 102.226 15.3769 102.93 16.4458C103.634 17.4886 104.547 18.01 105.668 18.01C107.936 18.01 109.291 15.8983 109.291 12.6396C109.291 9.0941 107.779 7.00851 105.563 7.00851C104.312 7.00851 103.373 7.55598 102.774 8.65091ZM103.014 16.3904C103.701 17.4092 104.584 17.91 105.668 17.91C106.766 17.91 107.641 17.401 108.247 16.4914C108.855 15.578 109.191 14.2569 109.191 12.6396C109.191 10.8794 108.816 9.49343 108.176 8.55067C107.538 7.61116 106.635 7.10851 105.563 7.10851C104.348 7.10851 103.443 7.63656 102.862 8.69894L102.861 8.69984C102.272 9.75013 101.987 11.0357 101.987 12.5092C101.987 14.0586 102.323 15.3416 103.014 16.3904ZM110.613 0.16244C110.757 0.109947 110.877 0.06981 110.976 0.0427055C111.072 0.0160422 111.154 0 111.22 0C111.426 0 111.595 0.0671823 111.709 0.210244C111.82 0.349255 111.868 0.544923 111.868 0.777817V15.7158C111.868 16.0921 111.881 16.4072 111.91 16.6559C111.939 16.9078 111.983 17.0802 112.038 17.1793C112.15 17.3811 112.406 17.5528 112.848 17.7347C113.086 17.8272 113.272 17.9225 113.4 18.0223C113.526 18.1206 113.615 18.2377 113.615 18.375C113.615 18.5499 113.541 18.7011 113.4 18.8198C113.262 18.9353 113.062 19.0181 112.807 19.072C111.898 19.3058 111.122 19.5388 110.477 19.7967C110.238 19.903 110.041 19.9609 109.839 19.9609C109.633 19.9609 109.465 19.8938 109.35 19.7507C109.239 19.6117 109.191 19.416 109.191 19.1831V17.7754C109.191 17.7212 109.18 17.6931 109.171 17.681C109.166 17.6739 109.159 17.6668 109.135 17.6668C109.124 17.6668 109.097 17.669 109.026 17.7384C107.812 19.2152 106.352 19.9609 104.677 19.9609C103.24 19.9609 101.963 19.401 100.877 18.2884C99.785 17.1694 99.2328 15.5511 99.2326 13.4491C99.1802 11.5244 99.8061 9.54757 100.921 8.05659C102.037 6.56465 103.648 5.55258 105.564 5.57895C106.809 5.57907 107.975 5.92382 109.06 6.63822C109.139 6.69095 109.168 6.69995 109.187 6.69995C109.188 6.69995 109.188 6.69993 109.189 6.69991C109.19 6.6934 109.191 6.68356 109.191 6.6696V4.19297C109.191 3.79261 109.165 3.46683 109.118 3.21422C109.071 2.96096 109.003 2.79103 108.927 2.69205C108.786 2.52844 108.518 2.35419 108.109 2.20101L108.107 2.20025C107.906 2.1199 107.744 2.02986 107.631 1.92741C107.516 1.82406 107.445 1.7013 107.445 1.55991C107.445 1.38384 107.519 1.23822 107.662 1.126C107.8 1.01779 108 0.942072 108.253 0.888677C109.057 0.707237 109.833 0.474142 110.61 0.163572L110.613 0.16244ZM108.275 0.986374C107.779 1.09065 107.545 1.27314 107.545 1.55991C107.545 1.76847 107.753 1.95096 108.144 2.10738C108.561 2.2638 108.848 2.44629 109.005 2.62877C109.187 2.8634 109.291 3.3848 109.291 4.19297V6.6696C109.291 6.74781 109.265 6.79995 109.187 6.79995C109.135 6.79995 109.083 6.77388 109.005 6.72174C107.936 6.01785 106.789 5.67895 105.563 5.67895C101.809 5.62681 99.2283 9.64156 99.3326 13.4478C99.3326 15.5333 99.8801 17.1236 100.949 18.2185C102.018 19.3135 103.269 19.8609 104.677 19.8609C106.319 19.8609 107.753 19.131 108.952 17.6711C109.031 17.5929 109.083 17.5668 109.135 17.5668C109.239 17.5668 109.291 17.645 109.291 17.7754V19.1831C109.291 19.6263 109.474 19.8609 109.839 19.8609C110.021 19.8609 110.204 19.8088 110.438 19.7045C111.09 19.4438 111.872 19.2092 112.785 18.9746C113.28 18.8703 113.515 18.6617 113.515 18.375C113.515 18.1925 113.28 18.01 112.811 17.8275C112.368 17.645 112.081 17.4625 111.95 17.2279C111.82 16.9933 111.768 16.4719 111.768 15.7158V0.777817C111.768 0.334629 111.585 0.1 111.22 0.1C111.116 0.1 110.934 0.15214 110.647 0.256419C109.865 0.569258 109.083 0.803886 108.275 0.986374ZM17.7742 19.5742V5.5486H20.1465V19.5742H17.7742ZM50.2134 8.65871C49.4746 9.48952 48.9841 10.78 48.9841 12.6135C48.9841 14.447 49.4746 15.7375 50.2134 16.5683C50.9517 17.3985 51.9466 17.7796 52.977 17.7796C54.1605 17.7796 55.1343 17.3165 55.8148 16.4461C56.4975 15.5729 56.8918 14.2806 56.8918 12.6135C56.8918 10.9464 56.4975 9.65414 55.8148 8.78093C55.1343 7.91054 54.1605 7.44742 52.977 7.44742C51.9466 7.44742 50.9517 7.82852 50.2134 8.65871ZM61.6919 19.5742H64.0643V0.673537H61.6919V19.5742ZM67.3995 19.5742V5.5486H69.7718V19.5742H67.3995ZM94.5146 7.7906C93.9932 7.24314 93.2893 6.95637 92.429 6.95637C90.4477 6.95637 89.0399 8.59877 88.701 10.6583C88.6749 10.7886 88.6749 10.8929 88.6749 10.9451C88.6749 11.0493 88.7531 11.1015 88.8835 11.1015H93.1329C94.6971 11.1015 95.3227 10.7365 95.3227 9.58942C95.3227 8.93768 95.062 8.33807 94.5146 7.7906ZM48.8841 12.6135C48.8841 8.91161 50.8654 7.34742 52.977 7.34742C55.4015 7.34742 56.9918 9.25051 56.9918 12.6135C56.9918 15.9765 55.4015 17.8796 52.977 17.8796C50.8654 17.8796 48.8841 16.3154 48.8841 12.6135Z" fill="#333B7B" />
    <path d="M20.1447 2.7426C20.1447 3.40069 19.6113 3.93417 18.9532 3.93417C18.2951 3.93417 17.7616 3.40069 17.7616 2.7426C17.7616 2.08451 18.2951 1.55103 18.9532 1.55103C19.6113 1.55103 20.1447 2.08451 20.1447 2.7426Z" fill="#333B7B" />
    <path fill-rule="evenodd" clip-rule="evenodd" d="M20.2448 2.7425C20.2448 3.45582 19.6665 4.03407 18.9532 4.03407C18.2399 4.03407 17.6616 3.45582 17.6616 2.7425C17.6616 2.02918 18.2399 1.45093 18.9532 1.45093C19.6665 1.45093 20.2448 2.02918 20.2448 2.7425ZM18.9532 3.93407C19.6113 3.93407 20.1448 3.40059 20.1448 2.7425C20.1448 2.08441 19.6113 1.55093 18.9532 1.55093C18.2951 1.55093 17.7616 2.08441 17.7616 2.7425C17.7616 3.40059 18.2951 3.93407 18.9532 3.93407Z" fill="#333B7B" />
    <path d="M69.8695 2.7426C69.8695 3.40069 69.336 3.93417 68.6779 3.93417C68.0198 3.93417 67.4863 3.40069 67.4863 2.7426C67.4863 2.08451 68.0198 1.55103 68.6779 1.55103C69.336 1.55103 69.8695 2.08451 69.8695 2.7426Z" fill="#333B7B" />
    <path fill-rule="evenodd" clip-rule="evenodd" d="M69.9695 2.7425C69.9695 3.45582 69.3912 4.03407 68.6779 4.03407C67.9646 4.03407 67.3864 3.45582 67.3864 2.7425C67.3864 2.02918 67.9646 1.45093 68.6779 1.45093C69.3912 1.45093 69.9695 2.02918 69.9695 2.7425ZM68.6779 3.93407C69.336 3.93407 69.8695 3.40059 69.8695 2.7425C69.8695 2.08441 69.336 1.55093 68.6779 1.55093C68.0198 1.55093 67.4864 2.08441 67.4864 2.7425C67.4864 3.40059 68.0198 3.93407 68.6779 3.93407Z" fill="#333B7B" />
</svg>